HIERARCHY
ROOT Hips
{
	OFFSET 0.000000 0.000000 0.000000
	CHANNELS 6 Xposition Yposition Zposition Xrotation Yrotation Zrotation
	JOINT LeftUpLeg_virtual
	{
		OFFSET 0.000000 0.000000 0.000000
		CHANNELS 3 Xrotation Yrotation Zrotation
		JOINT LeftUpLeg
		{
			OFFSET 11.394100 -6.187798 -0.413800
			CHANNELS 3 Xrotation Yrotation Zrotation
			JOINT LeftLeg
			{
				OFFSET 0.430247 -32.302673 3.732800
				CHANNELS 3 Xrotation Yrotation Zrotation
				JOINT LeftFoot
				{
					OFFSET -0.430247 -48.264931 -6.423300
					CHANNELS 3 Xrotation Yrotation Zrotation
					JOINT LeftToeBase
					{
						OFFSET 4.230900 -16.068199 23.438400
						CHANNELS 3 Xrotation Yrotation Zrotation
						JOINT LeftToe_End
						{
							OFFSET 4.510700 0.695400 19.974600
							CHANNELS 3 Xrotation Yrotation Zrotation
							End Site
							{
								OFFSET 0 0 0
							}
						}
					}
				}
			}
		}
	}
	JOINT RightUpLeg_virtual
	{
		OFFSET 0.000000 0.000000 0.000000
		CHANNELS 3 Xrotation Yrotation Zrotation
		JOINT RightUpLeg
		{
			OFFSET -11.333700 -6.187798 -0.413800
			CHANNELS 3 Xrotation Yrotation Zrotation
			JOINT RightLeg
			{
				OFFSET -0.430392 -32.302628 3.733000
				CHANNELS 3 Xrotation Yrotation Zrotation
				JOINT RightFoot
				{
					OFFSET 0.430392 -48.264973 -6.423500
					CHANNELS 3 Xrotation Yrotation Zrotation
					JOINT RightToeBase
					{
						OFFSET -4.230900 -16.068199 23.438400
						CHANNELS 3 Xrotation Yrotation Zrotation
						JOINT RightToe_End
						{
							OFFSET -4.510700 0.695400 19.974600
							CHANNELS 3 Xrotation Yrotation Zrotation
							End Site
							{
								OFFSET 0 0 0
							}
						}
					}
				}
			}
		}
	}
	JOINT Spine_virtual
	{
		OFFSET 0.000000 0.000000 0.000000
		CHANNELS 3 Xrotation Yrotation Zrotation
		JOINT Spine
		{
			OFFSET -0.002400 12.777504 0.315300
			CHANNELS 3 Xrotation Yrotation Zrotation
			JOINT Spine1
			{
				OFFSET -0.002067 5.816869 0.032633
				CHANNELS 3 Xrotation Yrotation Zrotation
				JOINT Spine1_split
				{
					OFFSET -0.002067 5.816869 0.032633
					CHANNELS 3 Xrotation Yrotation Zrotation
					JOINT Spine2
					{
						OFFSET -0.002067 5.816869 0.032633
						CHANNELS 3 Xrotation Yrotation Zrotation
						JOINT Neck_virtual
						{
							OFFSET 0.000000 0.000000 0.000000
							CHANNELS 3 Xrotation Yrotation Zrotation
							JOINT Neck
							{
								OFFSET -0.003700 21.199493 -0.826900
								CHANNELS 3 Xrotation Yrotation Zrotation
								JOINT Head
								{
									OFFSET 0.000000 20.442200 4.834800
									CHANNELS 3 Xrotation Yrotation Zrotation
									JOINT HeadTop_End
									{
										OFFSET 0.000000 34.668396 4.968400
										CHANNELS 3 Xrotation Yrotation Zrotation
										End Site
										{
											OFFSET 0 0 0
										}
									}
								}
							}
						}
						JOINT LeftShoulder_virtual
						{
							OFFSET 0.000000 0.000000 0.000000
							CHANNELS 3 Xrotation Yrotation Zrotation
							JOINT LeftShoulder
							{
								OFFSET 3.288150 8.794197 -1.372250
								CHANNELS 3 Xrotation Yrotation Zrotation
								JOINT LeftShoulder_split
								{
									OFFSET 3.288150 8.794197 -1.372250
									CHANNELS 3 Xrotation Yrotation Zrotation
									JOINT LeftArm
									{
										OFFSET 11.953299 -2.279007 -0.146200
										CHANNELS 3 Xrotation Yrotation Zrotation
										JOINT LeftForeArm
										{
											OFFSET 18.448900 0.000000 0.000000
											CHANNELS 3 Xrotation Yrotation Zrotation
											JOINT LeftHand
											{
												OFFSET 29.527798 0.000000 0.000000
												CHANNELS 3 Xrotation Yrotation Zrotation
												End Site
												{
													OFFSET 0 0 0
												}
											}
										}
									}
								}
							}
						}
						JOINT RightShoulder_virtual
						{
							OFFSET 0.000000 0.000000 0.000000
							CHANNELS 3 Xrotation Yrotation Zrotation
							JOINT RightShoulder
							{
								OFFSET -3.249400 8.794197 -1.372250
								CHANNELS 3 Xrotation Yrotation Zrotation
								JOINT RightShoulder_split
								{
									OFFSET -3.249400 8.794197 -1.372250
									CHANNELS 3 Xrotation Yrotation Zrotation
									JOINT RightArm
									{
										OFFSET -11.953299 -2.279007 -0.146200
										CHANNELS 3 Xrotation Yrotation Zrotation
										JOINT RightForeArm
										{
											OFFSET -18.448900 0.000000 0.000000
											CHANNELS 3 Xrotation Yrotation Zrotation
											JOINT RightHand
											{
												OFFSET -29.527802 0.000000 0.000000
												CHANNELS 3 Xrotation Yrotation Zrotation
												End Site
												{
													OFFSET 0 0 0
												}
											}
										}
									}
								}
							}
						}
					}
				}
			}
		}
	}
}
MOTION
Frames: 8
Frame Time: 0.03333333
2.372459 89.877350 0.888012 0.000000 0.000000 0.000000 6.358820 -66.559790 10.340836 -36.131499 4.374929 15.714717 40.875277 -4.172158 -6.032713 -9.776471 -3.293467 -12.192449 1.771538 -0.555460 2.455740 0.000000 0.000000 0.000000 0.380748 -61.559190 6.621481 -31.811015 0.123267 -29.255220 38.690163 -3.965110 -4.340606 -10.527196 -0.116760 24.483144 -2.981223 4.431150 -0.501087 0.000000 0.000000 0.000000 -3.856275 -64.610017 1.405206 7.535720 3.375537 -5.162964 6.470614 0.754650 -5.949105 2.389871 -1.924702 0.730227 0.000000 0.000000 0.000000 6.934782 1.262071 -5.144730 -14.365302 23.563772 4.318890 -1.764162 14.925461 1.681206 0.000000 0.000000 0.000000 6.483008 0.737898 -5.444729 -6.280969 -20.818454 -1.717735 -9.049017 1.042546 -2.622310 -13.643563 20.082488 -28.456667 0.372185 -33.150122 2.024112 0.000000 0.000000 0.000000 6.346351 1.208869 -5.249877 -3.985051 3.797259 6.331257 0.795741 -0.705881 0.122770 -38.542300 -22.281614 29.602726 -171.723769 60.835511 169.520063 0.000000 0.000000 0.000000 
0.386977 90.161568 1.328030 0.000000 0.000000 0.000000 5.992765 -66.626351 9.946799 -35.224614 6.813506 16.996033 40.883480 -5.354075 -6.127617 -9.345829 -3.657387 -10.486797 2.317060 -0.458833 1.927159 0.000000 0.000000 0.000000 0.907411 -62.061373 6.746390 -32.870391 0.236185 -28.156528 44.264441 -3.603371 -3.927311 -10.339944 1.215107 20.196975 2.097801 4.648881 -0.326469 0.000000 0.000000 0.000000 -3.086471 -64.773074 2.710005 7.202850 2.843112 -5.396965 5.652101 0.306088 -6.585685 0.689211 -2.489097 -0.109921 0.000000 0.000000 0.000000 5.865648 1.000119 -5.971684 -13.010244 23.498730 2.864652 -0.765206 15.033496 1.312456 0.000000 0.000000 0.000000 5.772125 0.449224 -5.950314 -5.935883 -20.107659 -0.599931 -9.073705 -0.768531 -0.905227 -15.534773 17.828457 -28.114621 0.885364 -35.625700 1.980760 0.000000 0.000000 0.000000 5.236382 0.685720 -5.822695 -4.222765 2.124460 6.039389 0.531162 -1.338559 0.644875 -39.293081 -22.677483 29.931426 -172.758106 57.285053 170.849000 0.000000 0.000000 0.000000 
-3.237297 90.667130 1.712746 0.000000 0.000000 0.000000 5.507704 -65.263345 9.605974 -33.604070 10.182502 18.615440 38.868602 -6.062049 -6.479316 -8.695557 -3.711698 -9.889949 3.059794 -0.278123 1.193914 0.000000 0.000000 0.000000 1.681874 -62.306768 7.379793 -37.637856 1.412319 -27.489100 53.473947 -0.700041 -3.743009 -4.739937 4.848129 21.069894 -4.908006 4.728149 -1.838039 0.000000 0.000000 0.000000 -0.570778 -64.251590 5.303182 6.970665 2.309521 -5.143904 4.322832 -0.425062 -8.223513 -0.595652 -2.329741 -0.331232 0.000000 0.000000 0.000000 4.229312 0.372388 -7.645223 -11.354408 23.150004 0.077585 -0.269045 14.550849 1.990983 0.000000 0.000000 0.000000 4.383739 -0.149753 -7.451449 -5.508839 -18.151001 1.347916 -8.202062 -1.470489 0.254787 -18.030967 15.550842 -27.332238 0.765051 -39.678468 1.260294 0.000000 0.000000 0.000000 3.438537 -0.183957 -7.340248 -4.416038 0.853062 4.960302 1.789018 -0.303595 1.365371 -42.006626 -27.865644 30.278106 -173.587154 50.271370 172.453343 0.000000 0.000000 0.000000 
-7.900347 91.017860 1.970531 0.000000 0.000000 0.000000 5.418930 -63.019355 9.776175 -31.476865 13.719272 20.164091 35.588984 -6.569432 -6.786933 -7.621467 -3.857876 -11.193006 2.643710 -0.047364 0.575135 0.000000 0.000000 0.000000 3.128165 -61.776356 8.917711 -43.875670 3.690624 -27.160840 62.454410 3.353830 -4.329347 2.316259 9.463528 24.309757 -19.781314 4.768055 -3.674299 0.000000 0.000000 0.000000 2.960192 -62.968047 8.644755 6.899548 1.810495 -4.572902 2.847138 -1.191864 -10.407396 -0.839007 -1.694983 -0.113220 0.000000 0.000000 0.000000 2.384360 -0.382671 -9.745039 -9.570480 22.474275 -3.470896 -0.489783 13.392487 3.368301 0.000000 0.000000 0.000000 2.613444 -0.849491 -9.529961 -5.310677 -15.269757 3.652684 -7.238550 -1.544474 0.916424 -21.078990 14.023539 -26.119296 0.213942 -45.273933 0.192163 0.000000 0.000000 0.000000 1.301347 -1.055139 -9.409571 -4.603155 0.336665 3.199763 4.103082 1.753818 1.519173 -47.165414 -35.554645 28.669238 -173.636236 43.885864 173.444663 0.000000 0.000000 0.000000 
-12.991278 90.971886 2.088772 0.000000 0.000000 0.000000 5.901735 -60.461422 10.757526 -29.141870 16.594074 21.449331 32.100629 -7.578068 -6.542540 -6.233827 -4.557779 -14.491310 0.816975 0.241257 0.147823 0.000000 0.000000 0.000000 4.441957 -60.269029 10.681524 -49.044095 6.409760 -26.992322 67.944973 6.002225 -4.952429 7.830522 12.170040 25.537116 -30.466824 4.103173 -4.479143 0.000000 0.000000 0.000000 6.457955 -61.231526 11.961026 6.989003 1.343008 -3.907842 1.484628 -1.732480 -12.523944 -0.487257 -1.944138 0.294570 0.000000 0.000000 0.000000 0.720211 -0.968751 -11.684271 -8.014360 21.466455 -6.934290 -1.715990 12.094300 4.862011 0.000000 0.000000 0.000000 0.929640 -1.372923 -11.482849 -5.413413 -12.176814 6.335067 -5.981619 -1.379547 1.162136 -24.533377 13.453401 -24.523118 0.041721 -51.981558 -0.512048 0.000000 0.000000 0.000000 -0.707796 -1.638942 -11.421030 -4.912364 0.759718 0.650078 5.769168 2.969849 1.259010 -55.207610 -42.248371 23.457743 -173.156224 40.278599 173.740232 0.000000 0.000000 0.000000 
-18.287027 90.329773 2.142941 0.000000 0.000000 0.000000 6.787027 -57.685175 12.356440 -26.508562 18.303423 22.268003 29.329208 -8.859133 -5.533531 -5.874541 -5.538951 -18.084244 -0.869029 0.550983 -0.502577 0.000000 0.000000 0.000000 5.682898 -58.393295 12.649014 -51.994463 8.961177 -27.604954 68.364156 6.551268 -4.549259 10.922928 11.173726 23.895649 -30.252650 2.027684 -3.514446 0.000000 0.000000 0.000000 9.350787 -59.097276 14.694585 7.027175 0.875938 -3.320721 0.500828 -1.872750 -13.953634 -0.276550 -2.309449 1.253380 0.000000 0.000000 0.000000 -0.341150 -1.253383 -12.915458 -7.062573 20.212873 -9.679628 -3.950024 10.738812 5.744511 0.000000 0.000000 0.000000 -0.254319 -1.525835 -12.693734 -5.811610 -9.347389 9.023367 -5.117878 -1.225692 0.902310 -27.496503 14.293148 -23.099066 1.255175 -58.913612 0.100550 0.000000 0.000000 0.000000 -2.066725 -1.785479 -12.791951 -5.160511 2.269046 -2.712688 5.979037 2.455767 1.200258 -64.812935 -45.073791 15.357921 -172.322312 39.454424 173.289973 0.000000 0.000000 0.000000 
-23.624290 89.167694 2.055824 0.000000 0.000000 0.000000 7.581546 -54.943090 14.070756 -23.295129 18.537693 22.544235 27.831827 -10.668169 -3.915758 -6.670375 -6.400817 -21.078893 -1.568377 0.961335 -1.638645 0.000000 0.000000 0.000000 6.808949 -56.606477 14.687851 -52.680566 11.400149 -29.202546 64.073001 5.627609 -3.541836 12.362631 7.385534 21.368459 -24.048980 -0.481105 -1.290028 0.000000 0.000000 0.000000 11.435187 -56.497020 16.770023 6.965150 0.440806 -2.887603 0.096337 -1.634617 -14.295035 0.076689 -2.616153 1.773592 0.000000 0.000000 0.000000 -0.534834 -1.160597 -13.144204 -6.847691 18.824377 -11.293195 -7.172063 9.593243 5.424003 0.000000 0.000000 0.000000 -0.568959 -1.329916 -12.739983 -6.372064 -6.972849 11.222752 -4.618547 -0.099440 0.702093 -29.592833 16.391658 -22.380962 4.310383 -65.310829 2.594959 0.000000 0.000000 0.000000 -2.441619 -1.525813 -13.119695 -5.209903 4.560583 -7.073519 5.445163 0.657603 1.678980 -71.706598 -43.318392 8.455138 -171.406999 40.159699 172.370643 0.000000 0.000000 0.000000 
-28.706755 87.704575 1.654934 0.000000 0.000000 0.000000 8.291605 -52.491616 15.689969 -20.642908 17.516287 22.889149 27.511440 -12.900798 -2.167803 -8.061698 -6.938783 -22.765826 -1.245542 1.507218 -3.641222 0.000000 0.000000 0.000000 7.837669 -55.096202 16.337322 -51.414450 13.511542 -31.314532 56.401004 4.408169 -3.083573 13.095628 2.919391 20.590809 -18.016480 -2.281782 0.459719 0.000000 0.000000 0.000000 12.828686 -54.065957 18.183217 6.960406 0.155876 -2.484317 0.298374 -1.030161 -13.443537 0.926180 -2.851720 1.667142 0.000000 0.000000 0.000000 0.257065 -0.709308 -12.256198 -7.409676 17.268516 -11.285583 -10.918802 9.421212 3.714289 0.000000 0.000000 0.000000 0.153246 -0.833165 -11.605466 -6.919930 -5.201651 12.723910 -4.056562 1.965306 0.795348 -30.934559 19.494997 -22.797490 9.163222 -70.048453 6.960946 0.000000 0.000000 0.000000 -1.644965 -0.995815 -12.331398 -4.846903 7.276214 -12.318684 3.522910 -0.656465 1.648290 -73.015610 -39.500627 5.743220 -170.430828 41.847012 171.216190 0.000000 0.000000 0.000000 
